<?xml version="1.0" encoding="UTF-8"?>
<svg id="Layer_1" xmlns="http://www.w3.org/2000/svg" version="1.1" viewBox="0 0 841.89 195.77">
  <!-- Generator: Adobe Illustrator 29.6.1, SVG Export Plug-In . SVG Version: 2.1.1 Build 9)  -->
  <defs>
    <style>
      .st0 {
        fill: #5dbfc1;
      }
    </style>
  </defs>
  <g>
    <g>
      <path class="st0" d="M158.33,82.94l-1.37,1.37c-7.38,7.38-17.5,17.84-28.74,17.84-9.52,0-15.01-6.35-15.01-14.07,0-7.21,4.63-13.81,10.81-17.93-1.8-2.32-2.66-5.32-2.66-8.24,0-11.07,10.47-21.19,23.42-21.19,5.15,0,8.75,3.09,8.75,7.55,0,2.92-1.54,5.75-4.12,7.81-.51.43-1.12.69-1.63.69-1.37,0-2.66-1.37-2.66-2.75,0-.69.34-1.29,1.03-1.89,1.63-1.37,2.23-2.83,2.23-3.86,0-.94-.6-2.4-3.6-2.4-10.47,0-18.27,8.24-18.27,16.04,0,2.23.69,4.2,2.06,5.66,2.49-1.11,5.75-1.97,8.49-1.97,3,0,4.8,2.06,4.8,4.29,0,2.4-2.23,4.98-7.63,4.98-2.32,0-4.38-.43-6.09-1.29-5.41,3.17-9.78,8.58-9.78,14.5,0,4.8,3.17,8.92,9.87,8.92,9.27,0,18.96-10.12,25.14-16.3l1.37-1.37c.6-.6,1.2-.86,1.8-.86,1.37,0,2.66,1.29,2.66,2.66,0,.6-.26,1.2-.86,1.8Z"/>
      <path class="st0" d="M218.72,82.94l-1.37,1.37c-2.92,2.92-10.98,12.18-15.61,12.18-2.83,0-5.06-2.32-5.06-4.89,0-5.32,5.32-9.44,5.32-14.67,0-.94-.86-1.89-2.06-1.89-7.12,0-13.9,13.3-17.24,18.79-.51.86-1.37,1.2-2.14,1.2-1.37,0-2.92-1.2-2.92-2.66,0-.43.09-.77.26-1.2,2.06-4.2,5.92-11.84,5.92-16.47,0-2.49-1.12-3.09-2.49-3.09-6.35,0-16.3,18.27-19.56,23.16-.51.86-1.29,1.12-2.06,1.12-1.37,0-2.75-1.12-2.75-2.57,0-.43.17-.94.51-1.46,2.83-4.29,4.8-8.75,5.58-13.64-1.54,1.63-3.35,3.35-4.72,4.72l-1.37,1.37c-.6.6-1.2.86-1.8.86-1.37,0-2.66-1.29-2.66-2.66,0-.6.26-1.2.86-1.8l1.37-1.37c2.32-2.32,5.23-5.4,7.29-7.72.77-.86,1.89-1.46,3.09-1.46,2.4,0,3.43,2.06,3.43,3.77,0,.43-.09,1.2-.26,1.89,3.95-5.32,8.41-9.35,13.04-9.35s7.63,3,7.63,8.24v.77c3.17-3.26,6.78-5.58,10.98-5.58,3.6,0,7.21,2.83,7.21,7.03,0,5.23-3,8.24-4.55,11.75-.34.77-.51,1.29-.51,1.63,0,.43.26.51.77.51.26,0,.94-.51,1.97-1.37,3.17-2.57,6.26-6.09,8.92-8.75l1.37-1.37c.6-.6,1.2-.86,1.8-.86,1.37,0,2.66,1.29,2.66,2.66,0,.6-.26,1.2-.86,1.8Z"/>
      <path class="st0" d="M243.17,82.94l-1.37,1.37c-4.12,4.12-11.07,11.58-17.24,11.58-3.95,0-6.18-2.66-6.18-6.26,0-2.83,1.46-6.09,2.4-8.75-.69.69-1.37,1.37-2.06,2.06l-1.37,1.37c-.6.6-1.2.86-1.8.86-1.37,0-2.66-1.29-2.66-2.66,0-.6.26-1.2.86-1.8l1.37-1.37c3.95-3.95,7.98-8.75,9.87-10.98.26-.26,1.63-.94,1.97-.94,1.54,0,3.17,1.46,3.17,3,0,.34,0,.6-.17.94-1.03,2.32-6.43,15.61-6.43,18.27,0,1.03.17,1.12,1.03,1.12,3.95,0,10.89-7.29,13.64-10.04l1.37-1.37c.6-.6,1.2-.86,1.8-.86,1.37,0,2.66,1.29,2.66,2.66,0,.6-.26,1.2-.86,1.8ZM237.77,55.32l-2.32,2.32c-.6.6-1.2.86-1.8.86-1.37,0-2.66-1.29-2.66-2.66,0-.6.26-1.2.86-1.8l2.32-2.32c.6-.6,1.2-.86,1.8-.86,1.37,0,2.66,1.29,2.66,2.66,0,.6-.26,1.2-.86,1.8Z"/>
      <path class="st0" d="M247.55,78.48c-.77,3.35-1.12,6.52-1.12,9.01,0,.94,0,5.32,1.89,5.32,3,0,12.18-10.64,13.64-12.1l1.37-1.37c.6-.6,1.2-.86,1.8-.86,1.37,0,2.66,1.29,2.66,2.66,0,.6-.26,1.2-.86,1.8l-1.37,1.37c-3.69,3.69-11.32,13.64-17.24,13.64s-7.03-6-7.03-10.47c0-.77,0-1.8.17-2.92-.51.34-.94.6-1.46.6-1.37,0-2.66-1.29-2.66-2.66,0-.6.26-1.2.86-1.8l1.37-1.37c1.03-1.03,2.23-2.32,3.69-3.77,3.69-15.01,12.18-36.72,21.88-36.72,3.95,0,5.23,3.09,5.23,6.43,0,8.49-11.41,21.45-22.82,33.2ZM265.13,44.08l-.08-.26c-4.8,0-13.04,19.99-14.41,23.93,7.21-7.89,14.58-17.16,14.58-22.48,0-.43,0-.86-.09-1.2Z"/>
      <path class="st0" d="M300.99,94.44c-4.89,2.06-11.24,4.98-17.07,8.41-1.29,2.32-2.66,4.55-4.03,6.86-3.43,5.66-7.63,10.12-11.15,10.12-3.09,0-4.03-2.66-4.03-4.63,0-5.49,7.72-11.5,16.04-16.38,2.06-3.69,3.95-7.55,5.66-11.5-3.52,3.69-7.38,6.43-11.58,6.43-4.63,0-7.55-3.43-7.55-8.58,0-.94.09-1.89.26-2.83l-1.97,1.97c-.6.6-1.2.86-1.8.86-1.37,0-2.66-1.29-2.66-2.66,0-.6.26-1.2.86-1.8l1.37-1.37c3.6-3.6,9.18-9.95,11.07-13.12.43-.69,1.29-1.29,2.14-1.29,1.37,0,2.75,1.03,2.75,2.49,0,.6-.17.94-.51,1.46-2.75,4.63-6.35,11.15-6.35,16.3,0,2.92,1.29,3.43,2.4,3.43,7.46,0,16.21-16.64,19.22-22.56.51-1.03,1.29-1.54,2.32-1.54,1.63,0,2.57,1.03,2.57,2.49,0,.34,0,.6-.09.94-2.32,9.27-6.26,18.19-10.55,26.68,4.38-2.23,8.32-3.95,10.64-4.98.34-.17.77-.17,1.12-.17,1.46,0,2.49,1.29,2.49,2.66,0,.94-.43,1.8-1.54,2.32Z"/>
      <path class="st0" d="M331.96,83.72c-5.4.94-14.93,2.06-19.13,2.32-1.54,0-2.75-1.03-2.75-2.57,0-1.2.77-2.49,2.4-2.57,4.03-.26,13.38-1.37,18.62-2.32h.51c1.54,0,2.49,1.37,2.49,2.66,0,1.12-.69,2.23-2.14,2.49Z"/>
      <path class="st0" d="M407.79,82.94l-1.37,1.37c-10.98,10.98-14.24,13.38-18.44,13.38-9.69,0-13.47-20.25-25.31-22.82-1.2-.09-2.15-.86-2.32-2.06-4.29,11.58-8.92,23.33-10.98,26.08-.86,1.12-1.97,2.23-3.52,2.23-2.92,0-3.95-3.26-3.95-5.58,0-16.04,7.29-53.02,32.43-53.02,7.81,0,15.18,4.72,15.18,12.35,0,10.29-10.38,16.3-18.87,18.36,8.41,6.52,13.64,19.3,17.33,19.3,1.54,0,3.26-.26,14.84-11.84l1.37-1.37c.6-.6,1.2-.86,1.8-.86,1.37,0,2.66,1.29,2.66,2.66,0,.6-.26,1.2-.86,1.8ZM348.86,79.34c-.94,4.38-1.54,9.61-1.89,13.9,1.46-3.86,3.17-8.41,4.98-13.12,3.69-9.44,7.81-20.76,10.38-27.79-6.86,5.92-11.24,16.64-13.47,27.02ZM374.33,47.69c-1.8,0-3.52.26-5.15.77-1.29,3.6-4.46,12.44-7.89,21.79.51-.43.86-.51,1.54-.51,7.72,0,21.53-5.06,21.53-14.84,0-3.6-3.69-7.21-10.04-7.21Z"/>
      <path class="st0" d="M446.91,82.94l-1.37,1.37c-3.35,3.35-7.46,5.75-11.58,5.75-1.2,0-2.4-.26-3.6-.69-2.57,6.35-8.84,11.5-14.58,11.5-6.18,0-8.58-4.98-8.58-9.78,0-2.66.69-6.43,2.4-9.87l-3.17,3.09c-.6.6-1.2.86-1.8.86-1.37,0-2.66-1.29-2.66-2.66,0-.6.26-1.2.86-1.8l1.37-1.37c7.29-7.29,14.07-10.9,20.67-10.9.6,0,.69,0,1.46.09,1.63.17,2.4,1.37,2.4,2.57,0,.51-.17.94-.43,1.37,3.17.77,4.2,4.12,4.2,6.95,0,1.37-.17,3.09-.51,4.89.77.34,1.63.6,2.4.6,2.49,0,5.06-1.72,7.55-4.2l1.37-1.37c.6-.6,1.2-.86,1.8-.86,1.37,0,2.66,1.29,2.66,2.66,0,.6-.26,1.2-.86,1.8ZM424.09,77.11c0-1.8.17-2.57.69-3.52-6.09.34-12.44,9.78-12.44,17.5,0,3.35,1.29,4.63,3.43,4.63,3.77,0,8.66-4.2,10.55-9.95-1.63-3.26-2.23-6.26-2.23-8.66Z"/>
      <path class="st0" d="M477.79,82.94l-1.37,1.37c-10.47,10.47-16.47,13.38-25.74,13.38-2.06,0-3.86-.94-5.32-2.32-.6-.6-.77-1.2-.77-1.8,0-1.54,1.29-2.75,2.75-2.75.51,0,1.2.17,1.72.69.34.26.51.34.77.51.51.34,1.03.43,1.54.43,2.75,0,5.32-2.32,5.32-5.58,0-4.8-2.23-6.69-3-10.81-2.4,2.49-4.89,4.98-6.78,6.86l-1.37,1.37c-.6.6-1.2.86-1.8.86-1.37,0-2.66-1.29-2.66-2.66,0-.6.26-1.2.86-1.8l1.37-1.37c4.55-4.55,11.58-11.84,13.38-14.24.6-.86,1.37-1.2,2.14-1.2,1.37,0,2.57,1.12,2.57,2.57,0,.51-.17,1.03-.6,1.63-.86,1.29-2.23,3.69-2.23,5.15,0,4.63,3.26,7.72,3.26,13.64,0,1.12-.17,2.23-.51,3.17,3.17-1.8,6.78-4.63,11.5-9.35l1.37-1.37c.6-.6,1.2-.86,1.8-.86,1.37,0,2.66,1.29,2.66,2.66,0,.6-.26,1.2-.86,1.8Z"/>
      <path class="st0" d="M477.7,85.43c.26,3.43,1.03,5.66,4.98,5.66,1.37,0,2.92-.43,4.55-1.29,2.06-1.12,3.43-2.49,4.89-2.49s2.57,1.2,2.57,2.57c0,.6-.17,1.2-.6,1.72-.51.69-2.32,1.89-4.63,2.92-2.32.94-4.72,1.46-6.86,1.46-7.12,0-10.04-4.98-10.04-11.58,0-9.35,8.06-17.84,15.96-17.84,4.29,0,7.38,2.83,7.38,6.86,0,6.95-9.52,11.24-18.19,12.01ZM488.51,71.62c-4.89.6-8.58,4.46-9.95,8.49,5.4-.26,12.18-3.52,12.18-6.69,0-.51-.17-1.8-2.23-1.8Z"/>
      <path class="st0" d="M564.77,82.94c-8.24,8.24-17.84,17.24-30.54,17.24-9.44,0-13.81-7.29-13.81-15.87,0-25.48,23.59-43.49,32.94-43.49,5.32,0,8.92,3.43,8.92,9.61,0,7.81-7.55,18.87-14.33,18.87-2.23,0-4.46-1.54-4.46-4.29,0-3,2.66-5.06,5.15-6.09.43-.17.77-.17,1.12-.17,1.46,0,2.4,1.2,2.49,2.49,2.49-2.66,4.89-6.86,4.89-10.81,0-3.52-1.46-4.46-3.77-4.46-6.09,0-27.79,15.27-27.79,38.35,0,6.95,3.17,10.72,8.66,10.72,11.07,0,19.82-8.58,26.94-15.7.6-.6,1.2-.86,1.8-.86,1.37,0,2.66,1.29,2.66,2.66,0,.6-.26,1.2-.86,1.8Z"/>
      <path class="st0" d="M599.77,82.94l-1.37,1.37c-4.2,4.2-14.15,13.64-20.76,13.64-3.17,0-5.58-2.06-5.58-5.66,0-4.72,6.09-10.38,7.38-15.44.09-.43.17-.77.17-1.03,0-.43-.17-.6-.6-.86-2.23-1.12-3.43-.86-5.66-1.72-3.09,4.12-5.66,6.78-8.58,9.69l-1.37,1.37c-.6.6-1.2.86-1.8.86-1.37,0-2.66-1.29-2.66-2.66,0-.6.26-1.2.86-1.8l1.37-1.37c2.75-2.75,5.49-5.75,7.89-9.09-.6-.69-1.37-2.32-1.37-3.43,0-1.8,1.63-2.83,3.17-2.83,1.46,0,2.83.94,2.83,2.75,0,.26,0,.6-.09.94,2.83,2.92,11.24,1.29,11.24,7.63,0,6.69-7.63,14.15-7.63,16.99,0,.43.09.52.43.52,4.55,0,14.5-9.44,17.16-12.1l1.37-1.37c.6-.6,1.2-.86,1.8-.86,1.37,0,2.66,1.29,2.66,2.66,0,.6-.26,1.2-.86,1.8Z"/>
      <path class="st0" d="M624.22,82.94l-1.37,1.37c-4.12,4.12-11.07,11.58-17.24,11.58-3.95,0-6.18-2.66-6.18-6.26,0-2.83,1.46-6.09,2.4-8.75-.69.69-1.37,1.37-2.06,2.06l-1.37,1.37c-.6.6-1.2.86-1.8.86-1.37,0-2.66-1.29-2.66-2.66,0-.6.26-1.2.86-1.8l1.37-1.37c3.95-3.95,7.98-8.75,9.87-10.98.26-.26,1.63-.94,1.97-.94,1.54,0,3.17,1.46,3.17,3,0,.34,0,.6-.17.94-1.03,2.32-6.43,15.61-6.43,18.27,0,1.03.17,1.12,1.03,1.12,3.95,0,10.89-7.29,13.64-10.04l1.37-1.37c.6-.6,1.2-.86,1.8-.86,1.37,0,2.66,1.29,2.66,2.66,0,.6-.26,1.2-.86,1.8ZM618.82,55.32l-2.32,2.32c-.6.6-1.2.86-1.8.86-1.37,0-2.66-1.29-2.66-2.66,0-.6.26-1.2.86-1.8l2.32-2.32c.6-.6,1.2-.86,1.8-.86,1.37,0,2.66,1.29,2.66,2.66,0,.6-.26,1.2-.86,1.8Z"/>
      <path class="st0" d="M712.66,82.94l-1.37,1.37c-6.86,6.86-13.47,12.61-23.5,12.61-4.89,0-6.78-1.2-10.98-3.35-1.03-.51-1.46-1.37-1.46-2.23,0-1.37,1.03-2.75,2.49-2.75.34,0,.77.17,1.2.34,1.97.94,3.35,1.8,4.98,2.32,6-.26,12.52-9.52,12.52-15.27,0-2.32-.94-3.09-2.83-3.09-5.92,0-12.27,6.18-17.67,13.98-1.46,5.06-2.92,10.04-4.38,14.93-2.75,9.35-6.61,21.62-11.07,21.62-3.43,0-4.72-1.8-4.72-5.15,0-3,6.78-20.67,15.1-32.68.69-2.92,1.63-5.83,2.49-8.84-10.38,8.15-24.54,17.59-37.32,17.59-1.54,0-3.09-.09-4.63-.43-4.38,12.78-10.47,26.85-16.47,26.85-3.26,0-4.2-3.09-4.2-4.98,0-5.83,8.84-21.36,18.79-33.2,1.03-3.35,1.8-6.26,2.32-8.32-3,3.43-6.35,7.29-7.72,8.66l-1.37,1.37c-.6.6-1.2.86-1.8.86-1.37,0-2.66-1.29-2.66-2.66,0-.6.26-1.2.86-1.8l1.37-1.37c2.32-2.32,10.47-11.84,12.27-13.98.43-.52,1.46-1.54,2.92-1.54,2.49,0,3.09,2.32,3.09,3.35,0,1.54-1.12,5.23-1.72,7.46,4.63-4.29,9.18-7.21,12.61-7.21,5.32,0,7.21,4.89,7.21,8.84,0,2.06-.43,4.29-1.29,6.52,7.46-4.29,14.75-10.04,20.42-14.75.51-.34,1.03-.69,1.63-.69,1.29,0,2.66,1.2,2.66,2.57,0,.17,0,.43-.09.69l-1.03,4.46c1.37-1.46,2.57-2.57,3.69-3.35,3.86-2.57,7.55-3.95,10.72-3.95,4.98,0,7.98,3.35,7.98,8.24,0,4.55-2.4,9.95-6.09,14.07,4.55-2.06,8.32-5.58,12.1-9.35l1.37-1.37c.6-.6,1.2-.77,1.8-.77,1.37,0,2.57,1.2,2.57,2.57,0,.6-.17,1.2-.77,1.8ZM618.39,108.59c-1.46,2.83-2.57,5.49-2.57,6.35,0,.09.17.17.17.17.52,0,2.32-2.66,3.86-5.83,2.32-4.63,4.98-10.9,5.58-13.04-1.37,2.14-4.55,7.63-7.03,12.35ZM649.78,72.56c-3.6,0-9.61,5.58-15.61,12.78-.34,1.2-.69,2.4-1.12,3.69.94.17,2.06.17,3.09.17,3.6,0,8.24-.94,10.98-3.17,3.09-2.49,4.72-6.52,4.72-9.78,0-3-1.12-3.69-2.06-3.69Z"/>
      <path class="st0" d="M719.1,96.5c-2.4,0-4.8-.69-6.69-2.14-.77-.6-1.03-1.29-1.03-1.97,0-1.37,1.2-2.75,2.57-2.75.51,0,1.03.17,1.54.6.86.69,2.23,1.12,3.6,1.12,3.09,0,6.43-1.97,6.43-7.12,0-4.55-2.4-7.72-3.86-11.24-2.49,3.69-5.92,6.86-9.01,9.95l-1.37,1.37c-.6.6-1.2.86-1.8.86-1.37,0-2.66-1.29-2.66-2.66,0-.6.26-1.2.86-1.8l1.37-1.37c3.52-3.52,7.72-7.29,9.87-11.92.86-1.89,1.29-3.35,3.35-4.46.43-.26.86-.34,1.29-.34,1.46,0,2.92.86,2.92,2.49,0,.43-.17.94-.51,1.46-.17.26-.26.69-.26,1.46,0,4.03,4.98,8.49,4.98,16.21,0,8.32-5.92,12.27-11.58,12.27Z"/>
    </g>
    <path class="st0" d="M116.55,77.7c-10.58,8.26-21.84,15.58-33.75,21.77-8.08,4.2-24.24,12.38-29.62,0-2.51-5.77,3.22-9.85,8.34-10.72,5.14-.87,10.46,1,14.59,4.01,10.34,7.52,11.88,21.61,10.65,33.4-1.23,11.86-5.56,24.93-16.32,31.4-2.61,1.57-.68,5.95,1.96,4.37,11.81-7.1,17.2-20.27,18.92-33.46,1.82-14.04-.13-30.66-12.42-39.61-8.58-6.24-26.44-8.36-30.63,4.48-1.65,5.04.95,10.38,4.81,13.63,4.98,4.21,11.63,4.49,17.71,2.85,8.56-2.31,16.63-7.18,24.21-11.65,8.57-5.05,16.79-10.67,24.63-16.79,2.43-1.89-.62-5.59-3.05-3.69h0Z"/>
    <path class="st0" d="M729.68,88.14c3.89-11.36,13.12-19.79,17.91-30.71,2.28-5.2,3.77-10.66,4.43-16.3.52-4.46,1.19-10.29-1.48-14.26-2.1-3.12-6.04-3.99-9.27-2.12-3.9,2.25-5.07,6.86-3.72,10.98,3.13,9.6,14.65,14.55,23.98,14.86,11.45.38,26.02-5.76,32.25-15.71,1.64-2.62-2.5-5.02-4.13-2.42-5.55,8.85-19.23,14.04-29.31,13.28-5.03-.38-10.11-2.25-13.94-5.59-2.05-1.79-4.29-4.28-4.55-7.11-.3-3.28,3.56-6.65,5.21-2.42s.33,10.87-.66,15.24c-1.25,5.53-3.37,10.76-6.3,15.61-5.11,8.49-11.78,15.87-15.03,25.38-1,2.92,3.62,4.18,4.62,1.27h0Z"/>
  </g>
  <g>
    <path class="st0" d="M196.29,136.32c1.1,0,2.2.28,3.29.83,1.09.55,1.64,1.17,1.64,1.86,0,1.06-.44,1.59-1.31,1.59-.32,0-.88-.21-1.69-.62-.8-.41-1.48-.62-2.03-.62-1.98,0-3.62.88-4.95,2.65-1.32,1.77-1.98,4.02-1.98,6.76,0,2.05.45,3.84,1.34,5.38.9,1.54,1.96,2.31,3.19,2.31s2.19-.41,2.89-1.22c.7-.82,1.05-1.74,1.05-2.77,0-.57-.04-1.05-.12-1.43-.08-.38-.28-.72-.6-1.03-.32-.31-.75-.46-1.28-.46s-1.03-.11-1.5-.34c-.47-.23-.71-.54-.71-.93s.11-.76.34-1.1c.23-.34.54-.55.93-.62,1.56,0,2.61.16,3.15.48s.95.59,1.22.79c.28.21.5.55.69,1.03.18.48.33.88.43,1.21.1.32.18.84.22,1.55.05,1.19.07,2.59.07,4.19s-.12,2.58-.34,2.95c-.21.3-.55.45-1.03.47-.48.01-.82-.09-1-.29-.18-.21-.3-.67-.34-1.38-.55.48-1.25.89-2.08,1.22-.84.33-1.58.5-2.22.5-2.02,0-3.72-1.07-5.1-3.22-1.38-2.15-2.07-4.74-2.07-7.77,0-1.61.26-3.19.79-4.74.53-1.55,1.24-2.85,2.14-3.91,1.88-2.18,4.21-3.27,6.96-3.27Z"/>
    <path class="st0" d="M205.39,157.93c0,.34-.16.64-.48.9-.32.25-.68.38-1.07.38-.51,0-.76-.23-.76-.69-.09-1.08-.14-5.36-.14-12.86,0-.74.44-1.31,1.33-1.72.88-.41,2.07-.62,3.55-.62s2.78.37,3.89,1.1c1.11.74,1.67,1.62,1.67,2.65,0,.51-.22,1.07-.65,1.69-.44.62-.9,1.11-1.4,1.46-.49.36-1.2.79-2.12,1.29-.92.51-1.48.78-1.69.83,1.45.92,2.73,1.92,3.86,3,1.13,1.08,1.69,1.93,1.69,2.55s-.28,1.02-.83,1.21c-.16.05-.37.07-.62.07s-.57-.25-.96-.74-1.13-1.21-2.21-2.14-2.15-1.76-3.21-2.5c.05,1.84.09,3.21.14,4.1v.03ZM205.25,150.73c.76,0,1.9-.37,3.41-1.12,1.52-.75,2.31-1.44,2.38-2.09,0-.62-.34-1.09-1.03-1.4-.69-.31-1.41-.47-2.17-.47-.87,0-1.72.1-2.55.31-.02,1.1-.03,2.69-.03,4.76Z"/>
    <path class="st0" d="M219.01,158.28c-.09.57-.5.86-1.22.86s-1.08-.3-1.08-.9c0-1.36.67-4.11,2-8.27.6-1.91,1.26-3.49,2-4.76.74-1.26,1.45-1.9,2.14-1.9.37,0,.69.22.96.65.28.44.78,1.43,1.5,2.98.72,1.55,1.33,3.19,1.81,4.93.48,1.74,1.01,3.85,1.58,6.36,0,.3-.1.53-.31.71-.21.17-.46.26-.76.26-.74,0-1.2-.32-1.38-.96l-1.21-4.72c-2.02,0-3.64-.16-4.86-.48-.69,2.53-1.08,4.27-1.17,5.24ZM222.73,146.49c-.76,1.29-1.38,2.72-1.86,4.31,1.01.28,2.21.41,3.58.41-.44-1.59-1.01-3.16-1.72-4.72Z"/>
    <path class="st0" d="M235.93,143.28c1.66,0,2.98.36,3.98,1.09,1,.72,1.5,1.69,1.5,2.91,0,1.88-.59,3.27-1.76,4.17-.85.64-2,.96-3.45.96-.55,0-1.15-.05-1.79-.14.07,1.36.1,2.53.1,3.53s-.02,1.87-.07,2.6c-.05.53-.38.79-1,.79s-1.03-.13-1.22-.38-.29-.63-.29-1.14v-12.96c.05-.97,1.38-1.45,4-1.45ZM234.34,145.73c-.05.69-.07,1.43-.07,2.22v1.88c.6.07,1.26.1,2,.1s1.34-.14,1.83-.41c.67-.37,1-1.06,1-2.07v-.31c-.05-.6-.6-1.03-1.65-1.31-.6-.16-1.15-.24-1.65-.24s-.99.05-1.45.14Z"/>
    <path class="st0" d="M254.68,152.18l-.04,5.1c0,1.29-.41,1.93-1.24,1.93-.39,0-.68-.08-.88-.24-.2-.16-.28-.41-.26-.76.09-1.22.14-3.16.14-5.83-.39.05-.99.07-1.81.07s-2.08-.09-3.81-.28v.72c0,.48.09,2.23.28,5.24.02.37-.11.64-.4.81-.29.17-.58.26-.88.26s-.53-.09-.71-.26c-.17-.17-.27-.37-.29-.6-.25-2.39-.38-4.2-.38-5.43s.01-2.06.03-2.5l.14-5.76c.02-.28.18-.51.47-.71.29-.19.59-.29.91-.29.6,0,.9.25.9.76l-.07,5.41c1.15.18,2.15.28,3,.28h2.62c-.07-1.26-.1-3.17-.1-5.72,0-.32.16-.59.47-.79.31-.21.64-.31,1-.31s.6.16.74.48c.14.32.2.63.17.93v7.48Z"/>
    <path class="st0" d="M258.33,159.21c-.64,0-.96-.28-.96-.83l.14-14.03c0-.32.11-.58.34-.78.23-.19.51-.29.84-.29s.62.08.86.24c.24.16.37.43.4.81.02.38.03,1.22.03,2.53,0,6.14-.05,9.87-.14,11.2-.02.3-.2.56-.53.79-.33.23-.66.34-.98.34Z"/>
    <path class="st0" d="M273.71,146.25l-2.79-.34c-3.72,0-5.58,1.86-5.58,5.58,0,1.88.56,3.38,1.69,4.48.55.57,1.13.86,1.72.86s1.64-.26,3.14-.79c1.49-.53,2.3-.79,2.41-.79.62,0,.93.29.93.86,0,.48-.26.9-.79,1.24-2.87,1.22-4.95,1.83-6.24,1.83-.78,0-1.55-.25-2.31-.76-.76-.5-1.36-1.16-1.79-1.96-.9-1.59-1.34-3.29-1.34-5.1,0-2.44.74-4.37,2.21-5.79,1.47-1.42,3.35-2.14,5.65-2.14,1.33,0,2.65.22,3.96.65v.03c.41.25.62.54.62.86s-.17.61-.5.88-.66.4-.98.4Z"/>
    <path class="st0" d="M286.87,158.1c-.34-.25-.52-.53-.52-.84s.13-.57.38-.78c-.44-3.29-.65-7.05-.65-11.31,0-1.29.06-3.79.17-7.51.12-.34.35-.64.71-.9.36-.25.69-.38,1.02-.38s.52.01.59.03c3.29.92,6.15,2.69,8.58,5.33,2.44,2.63,3.71,5.79,3.83,9.46,0,4.04-1.68,6.58-5.03,7.62-.96.3-1.98.45-3.05.45s-2-.08-2.81-.24c.09.18.14.43.14.74s-.19.61-.57.9c-.38.29-.83.43-1.34.43s-.84-.31-.98-.93l-.45-2.07ZM288.94,144.9c0,4.02.23,7.84.69,11.44.55.16,1.48.24,2.79.24s2.57-.22,3.77-.65c1.21-.44,1.84-1.08,1.91-1.93.07-.64.1-1.14.1-1.48,0-2.99-.8-5.63-2.4-7.93-1.6-2.3-3.83-4.04-6.7-5.24-.12,2.71-.17,4.56-.17,5.55Z"/>
    <path class="st0" d="M305.38,151.45l.07,4.52c0,.6-.01.92-.03.96l5.96-.1c.67.07,1,.36,1,.86,0,.97-.45,1.45-1.34,1.45l-6.76.07c-.41,0-.72-.14-.91-.43-.2-.29-.3-.59-.33-.91-.02-.32-.04-.68-.04-1.07v-5.72c-.3-.16-.45-.4-.45-.72s.13-.61.38-.86c-.07-1.79-.1-3.42-.1-4.89,0-.85.52-1.29,1.55-1.31h.96l6.03.1h.03c.74.09,1.1.44,1.1,1.03,0,.46-.14.77-.41.93-.6.32-2.03.48-4.31.48-.85,0-1.7-.03-2.55-.1,0,2.07.01,3.23.04,3.48.9.02,2.65.03,5.27.03.71.09,1.07.41,1.07.96,0,.28-.12.54-.34.79-.23.25-.48.4-.74.43-.26.03-.83.05-1.69.05s-2.02-.01-3.46-.03Z"/>
    <path class="st0" d="M315.69,147.18c0-1.08.55-2,1.65-2.77,1.1-.77,2.45-1.15,4.05-1.15s2.81.21,3.64.62,1.24.94,1.24,1.59c0,.3-.1.55-.29.74s-.43.29-.71.29-.82-.18-1.64-.55c-.82-.37-1.55-.55-2.21-.55s-1.34.18-2.07.53c-.72.36-1.09.8-1.09,1.33s.44,1,1.31,1.41,1.91.77,3.1,1.07c1.19.3,1.99.59,2.4.88.4.29.69.52.86.69.17.17.35.51.53,1,.18.49.28,1.13.28,1.91,0,1.68-.55,2.92-1.64,3.74-1.09.82-2.39,1.22-3.89,1.22s-2.8-.24-3.88-.72-1.62-1.08-1.62-1.79c0-.37.16-.69.47-.98.31-.29.64-.36.98-.22,2.16.85,3.52,1.28,4.07,1.28.99,0,1.75-.25,2.28-.74.53-.49.79-1.12.79-1.88s-.3-1.34-.9-1.74c-.6-.4-1.32-.69-2.15-.88-.84-.18-1.68-.39-2.52-.62-.84-.23-1.56-.63-2.15-1.21-.6-.57-.9-1.4-.9-2.48Z"/>
    <path class="st0" d="M330.2,159.21c-.64,0-.96-.28-.96-.83l.14-14.03c0-.32.11-.58.34-.78.23-.19.51-.29.84-.29s.62.08.86.24c.24.16.37.43.4.81.02.38.03,1.22.03,2.53,0,6.14-.05,9.87-.14,11.2-.02.3-.2.56-.53.79-.33.23-.66.34-.98.34Z"/>
    <path class="st0" d="M342.3,143.32c.96,0,1.86.21,2.69.62s1.24.92,1.24,1.52c0,.32-.13.6-.38.83-.25.23-.55.34-.9.34s-.74-.13-1.17-.4c-.44-.26-1.01-.4-1.72-.4-1.47,0-2.67.61-3.58,1.83-.92,1.22-1.38,2.56-1.38,4.02s.32,2.69.96,3.71c.64,1.01,1.39,1.52,2.24,1.52s1.54-.22,2.08-.67.81-1.02.81-1.71c0-1.19-.22-1.79-.66-1.79-.96,0-1.63-.06-2-.19-.37-.13-.55-.41-.55-.84,0-.83.37-1.28,1.1-1.34.32-.02.74-.03,1.24-.03s1.02.09,1.55.28c.73.28,1.18.71,1.34,1.31.34,1.43.52,2.76.52,4v.79c0,.39,0,.71-.02.95s-.05.52-.1.83c-.06.31-.16.52-.31.64s-.4.17-.76.17-.63-.07-.81-.22c-.18-.15-.31-.42-.38-.81-1.08.71-2.16,1.07-3.24,1.07s-2.06-.38-2.95-1.15c-.88-.77-1.55-1.73-1.98-2.88-.44-1.15-.65-2.3-.65-3.45,0-2.55.74-4.61,2.21-6.17,1.47-1.56,3.32-2.34,5.55-2.34Z"/>
    <path class="st0" d="M351.71,148.45l-.38,8.38c-.02.74-.05,1.23-.07,1.48-.09.62-.49.93-1.21.93-.28,0-.52-.1-.74-.29-.22-.2-.34-.44-.36-.74.18-5.97.28-9.2.28-9.67v-1.57c0-.57.06-1.09.17-1.55.16-.62.57-.93,1.24-.93.32,0,.72.22,1.21.65s1.18,1.24,2.1,2.41c2.18,2.69,3.84,5.23,4.96,7.62-.05-3.26-.13-5.75-.24-7.46s-.17-2.65-.17-2.81v-.28c.16-.87.63-1.31,1.41-1.31.3,0,.57.13.83.4.25.26.38.59.38.98l.17,12.82c0,1.2-.48,1.79-1.45,1.79-.57,0-1.02-.2-1.34-.6-.32-.4-.55-.72-.69-.95-.14-.23-.34-.6-.62-1.1-1.77-3.33-3.6-6.07-5.48-8.2Z"/>
    <path class="st0" d="M367.08,151.45l.07,4.52c0,.6-.01.92-.03.96l5.96-.1c.67.07,1,.36,1,.86,0,.97-.45,1.45-1.34,1.45l-6.76.07c-.41,0-.72-.14-.91-.43-.2-.29-.3-.59-.33-.91-.02-.32-.04-.68-.04-1.07v-5.72c-.3-.16-.45-.4-.45-.72s.13-.61.38-.86c-.07-1.79-.1-3.42-.1-4.89,0-.85.52-1.29,1.55-1.31h.96l6.03.1h.03c.74.09,1.1.44,1.1,1.03,0,.46-.14.77-.41.93-.6.32-2.03.48-4.31.48-.85,0-1.7-.03-2.55-.1,0,2.07.01,3.23.04,3.48.9.02,2.65.03,5.27.03.71.09,1.07.41,1.07.96,0,.28-.12.54-.34.79-.23.25-.48.4-.74.43-.26.03-.83.05-1.69.05s-2.02-.01-3.46-.03Z"/>
    <path class="st0" d="M379.97,157.93c0,.34-.16.64-.48.9-.32.25-.68.38-1.07.38-.51,0-.76-.23-.76-.69-.09-1.08-.14-5.36-.14-12.86,0-.74.44-1.31,1.33-1.72.88-.41,2.07-.62,3.55-.62s2.78.37,3.89,1.1c1.11.74,1.67,1.62,1.67,2.65,0,.51-.22,1.07-.65,1.69-.44.62-.9,1.11-1.4,1.46-.49.36-1.2.79-2.12,1.29-.92.51-1.48.78-1.69.83,1.45.92,2.73,1.92,3.86,3,1.13,1.08,1.69,1.93,1.69,2.55s-.28,1.02-.83,1.21c-.16.05-.37.07-.62.07s-.57-.25-.96-.74-1.13-1.21-2.21-2.14-2.15-1.76-3.21-2.5c.05,1.84.09,3.21.14,4.1v.03ZM379.83,150.73c.76,0,1.9-.37,3.41-1.12,1.52-.75,2.31-1.44,2.38-2.09,0-.62-.34-1.09-1.03-1.4-.69-.31-1.41-.47-2.17-.47-.87,0-1.72.1-2.55.31-.02,1.1-.03,2.69-.03,4.76Z"/>
    <path class="st0" d="M393.69,155.62c.62,0,1.03.32,1.24.96,0,1.52-.24,2.88-.72,4.1-.16.44-.4.8-.71,1.1-.31.3-.64.45-.98.45-.76,0-1.14-.4-1.14-1.21,0-.25.03-.49.1-.72.71-.8,1.07-2.01,1.07-3.62.14-.71.52-1.07,1.14-1.07Z"/>
    <path class="st0" d="M408.11,137.29c.36-.23.76-.34,1.22-.34s.75.26.86.79c.02,2.67.07,6.65.14,11.96,0,3.24-.09,5.99-.28,8.24-.05.34-.26.65-.64.91s-.76.4-1.15.4c-.64,0-.97-.33-.97-1,.23-2.3.34-5.15.34-8.55l-.21-11.58c.09-.32.32-.6.67-.83Z"/>
    <path class="st0" d="M417.16,159.28l-2.86-.07c-.57,0-.9-.17-.96-.52-.14-.96-.21-2.47-.21-4.52l.24-10c0-.57.44-.86,1.31-.86.44,0,.79.1,1.07.31.28.21.41.49.41.86-.05.96-.16,2.3-.34,4-.28,2.23-.41,3.85-.41,4.88s.04,2.25.1,3.67l4.21-.24c-.02-.57-.03-1.45-.03-2.62l.24-10c0-.57.44-.86,1.31-.86.44,0,.79.1,1.07.31.28.21.41.49.41.86-.05.96-.16,2.3-.34,4-.28,2.23-.41,3.85-.41,4.88s.04,2.25.1,3.67l5.1-.31c.76,0,1.14.39,1.14,1.17,0,.64-.24,1.01-.72,1.1-1.03.16-2.19.24-3.48.24l-3.24-.03c-.28,0-.49-.03-.66-.1-.94.11-1.95.17-3.03.17Z"/>
    <path class="st0" d="M438.84,144.7c-.02-.09-.04-.24-.04-.45s.14-.42.43-.65c.29-.23.58-.34.88-.34s.57.09.81.28c.24.18.37.39.4.62.23,2.32.34,4.15.34,5.48s-.03,2.37-.1,3.1c-.16,2.23-.72,3.87-1.67,4.91-.95,1.05-2.42,1.57-4.39,1.57-1.45,0-2.65-.42-3.62-1.26s-1.64-1.94-2.03-3.29c-.6-2.04-.9-4.32-.9-6.82,0-1.08.06-2.17.17-3.27.02-.32.2-.59.53-.79.33-.21.64-.31.93-.31s.52.09.71.28.26.43.24.72c-.12,1.19-.17,2.27-.17,3.22s.02,1.81.07,2.57c.14,1.84.56,3.41,1.28,4.7.71,1.3,1.64,1.95,2.79,1.95,2.5,0,3.76-2.14,3.76-6.41,0-2.55-.14-4.48-.41-5.79Z"/>
    <path class="st0" d="M444.52,147.18c0-1.08.55-2,1.65-2.77,1.1-.77,2.45-1.15,4.05-1.15s2.81.21,3.64.62,1.24.94,1.24,1.59c0,.3-.1.55-.29.74s-.43.29-.71.29-.82-.18-1.64-.55c-.82-.37-1.55-.55-2.21-.55s-1.34.18-2.07.53c-.72.36-1.09.8-1.09,1.33s.44,1,1.31,1.41,1.91.77,3.1,1.07c1.19.3,1.99.59,2.4.88.4.29.69.52.86.69.17.17.35.51.53,1,.18.49.28,1.13.28,1.91,0,1.68-.55,2.92-1.64,3.74-1.09.82-2.39,1.22-3.89,1.22s-2.8-.24-3.88-.72-1.62-1.08-1.62-1.79c0-.37.16-.69.47-.98.31-.29.64-.36.98-.22,2.16.85,3.52,1.28,4.07,1.28.99,0,1.75-.25,2.28-.74.53-.49.79-1.12.79-1.88s-.3-1.34-.9-1.74c-.6-.4-1.32-.69-2.15-.88-.84-.18-1.68-.39-2.52-.62-.84-.23-1.56-.63-2.15-1.21-.6-.57-.9-1.4-.9-2.48Z"/>
    <path class="st0" d="M465.21,145.39l-.07,8.17c0,1.7.02,3.19.07,4.48.02.34-.12.63-.43.84-.31.22-.63.33-.95.33-.6,0-.9-.32-.9-.96-.07-2.5-.1-4.89-.1-7.15s.07-4.13.21-5.6c-1.38.12-2.78.17-4.21.17-.71,0-1.07-.3-1.07-.9,0-.28.13-.55.4-.83.26-.28.56-.42.88-.45l10.75-.34c.62.14.93.44.93.9,0,.94-1.08,1.41-3.24,1.41l-2.27-.07Z"/>
    <path class="st0" d="M475.72,157.93c0,.34-.16.64-.48.9-.32.25-.68.38-1.07.38-.51,0-.76-.23-.76-.69-.09-1.08-.14-5.36-.14-12.86,0-.74.44-1.31,1.33-1.72.88-.41,2.07-.62,3.55-.62s2.78.37,3.89,1.1c1.11.74,1.67,1.62,1.67,2.65,0,.51-.22,1.07-.65,1.69-.44.62-.9,1.11-1.4,1.46-.49.36-1.2.79-2.12,1.29-.92.51-1.48.78-1.69.83,1.45.92,2.73,1.92,3.86,3,1.13,1.08,1.69,1.93,1.69,2.55s-.28,1.02-.83,1.21c-.16.05-.37.07-.62.07s-.57-.25-.96-.74-1.13-1.21-2.21-2.14-2.15-1.76-3.21-2.5c.05,1.84.09,3.21.14,4.1v.03ZM475.58,150.73c.76,0,1.9-.37,3.41-1.12,1.52-.75,2.31-1.44,2.38-2.09,0-.62-.34-1.09-1.03-1.4-.69-.31-1.41-.47-2.17-.47-.87,0-1.72.1-2.55.31-.02,1.1-.03,2.69-.03,4.76Z"/>
    <path class="st0" d="M489.33,158.28c-.09.57-.5.86-1.22.86s-1.08-.3-1.08-.9c0-1.36.67-4.11,2-8.27.6-1.91,1.26-3.49,2-4.76.74-1.26,1.45-1.9,2.14-1.9.37,0,.69.22.96.65.28.44.78,1.43,1.5,2.98.72,1.55,1.33,3.19,1.81,4.93.48,1.74,1.01,3.85,1.58,6.36,0,.3-.1.53-.31.71-.21.17-.46.26-.76.26-.74,0-1.2-.32-1.38-.96l-1.21-4.72c-2.02,0-3.64-.16-4.86-.48-.69,2.53-1.08,4.27-1.17,5.24ZM493.05,146.49c-.76,1.29-1.38,2.72-1.86,4.31,1.01.28,2.21.41,3.58.41-.44-1.59-1.01-3.16-1.72-4.72Z"/>
    <path class="st0" d="M508.98,145.39l-.07,8.17c0,1.7.02,3.19.07,4.48.02.34-.12.63-.43.84-.31.22-.63.33-.95.33-.6,0-.9-.32-.9-.96-.07-2.5-.1-4.89-.1-7.15s.07-4.13.21-5.6c-1.38.12-2.78.17-4.21.17-.71,0-1.07-.3-1.07-.9,0-.28.13-.55.4-.83.26-.28.56-.42.88-.45l10.75-.34c.62.14.93.44.93.9,0,.94-1.08,1.41-3.24,1.41l-2.27-.07Z"/>
    <path class="st0" d="M523.69,143.46c1.7,0,3.07.65,4.12,1.96,1.05,1.31,1.57,3.1,1.57,5.38s-.57,4.24-1.72,5.89c-1.15,1.65-2.61,2.48-4.38,2.48-1.93,0-3.5-.83-4.72-2.48-1.22-1.65-1.83-3.68-1.83-6.07s.63-4.18,1.9-5.38,2.95-1.79,5.07-1.79ZM526.9,151.18c0-1.84-.26-3.19-.79-4.05-.53-.86-1.46-1.29-2.79-1.29s-2.37.41-3.1,1.22c-.74.82-1.1,1.98-1.1,3.48s.39,2.9,1.17,4.19c.78,1.29,1.86,1.93,3.24,1.93.78,0,1.45-.33,2-1,.92-1.15,1.38-2.64,1.38-4.48Z"/>
    <path class="st0" d="M535,157.93c0,.34-.16.64-.48.9-.32.25-.68.38-1.07.38-.51,0-.76-.23-.76-.69-.09-1.08-.14-5.36-.14-12.86,0-.74.44-1.31,1.33-1.72.88-.41,2.07-.62,3.55-.62s2.78.37,3.89,1.1c1.11.74,1.67,1.62,1.67,2.65,0,.51-.22,1.07-.65,1.69-.44.62-.9,1.11-1.4,1.46-.49.36-1.2.79-2.12,1.29-.92.51-1.48.78-1.69.83,1.45.92,2.73,1.92,3.86,3,1.13,1.08,1.69,1.93,1.69,2.55s-.28,1.02-.83,1.21c-.16.05-.37.07-.62.07s-.57-.25-.96-.74-1.13-1.21-2.21-2.14-2.15-1.76-3.21-2.5c.05,1.84.09,3.21.14,4.1v.03ZM534.86,150.73c.76,0,1.9-.37,3.41-1.12,1.52-.75,2.31-1.44,2.38-2.09,0-.62-.34-1.09-1.03-1.4-.69-.31-1.41-.47-2.17-.47-.87,0-1.72.1-2.55.31-.02,1.1-.03,2.69-.03,4.76Z"/>
    <path class="st0" d="M566.12,141.25c0,1.2-.32,2.19-.95,2.98-.63.79-1.67,1.64-3.12,2.53.28.41.72,1.05,1.34,1.9s1,1.38,1.14,1.59l1.07,1.76c.69-1.13,1.09-1.98,1.21-2.55.18-.69.66-1.03,1.41-1.03.39,0,.71.11.96.33.25.22.38.51.38.88,0,.9-.9,2.42-2.69,4.58.71,1.38,1.24,2.57,1.58,3.58-.05.34-.21.64-.48.9-.28.25-.59.38-.93.38s-.65-.14-.93-.41c-.18-.28-.33-.59-.45-.93s-.31-.84-.59-1.48c-1.06,1.13-1.94,1.89-2.65,2.29-.71.4-1.53.6-2.46.6s-1.87-.37-2.81-1.1c-.94-.74-1.65-1.64-2.14-2.72-.48-.96-.72-1.93-.72-2.9,0-1.52.39-2.74,1.17-3.67s1.93-1.83,3.45-2.71c-1.08-1.95-1.62-3.63-1.62-5.03s.43-2.52,1.29-3.34c.86-.83,1.9-1.24,3.12-1.24s2.26.51,3.12,1.52c.86,1.01,1.29,2.11,1.29,3.31ZM559.92,156.21c1.19,0,2.52-.74,3.96-2.21-.09-.14-.21-.32-.34-.53-.14-.22-.34-.53-.6-.93-.26-.4-.66-.96-1.17-1.69-.52-.72-.98-1.49-1.4-2.29l-.28-.48c-.74.53-1.25.93-1.55,1.21-1.03.9-1.55,1.94-1.55,3.12s.4,2.2,1.21,3.05c.46.51,1.03.76,1.72.76ZM561.78,139.04c-1.2,0-1.82.96-1.86,2.9.12.99.45,1.98,1,2.96,1.61-.97,2.41-1.92,2.41-2.88s-.17-1.69-.52-2.22c-.3-.5-.64-.76-1.03-.76Z"/>
    <path class="st0" d="M596.63,136.25c.55,0,.91.4,1.07,1.21.12,3.75.17,7.83.17,12.25s-.02,6.98-.07,7.67-.2,1.17-.45,1.45c-.25.28-.71.41-1.38.41-.6,0-.9-.37-.9-1.1v-7.79c0-1.26-.02-2.56-.07-3.9-.05-1.33-.07-2.17-.07-2.52-.78,1.33-1.82,2.43-3.1,3.29-1.29.86-2.72,1.29-4.31,1.29s-2.92-.65-4-1.96c-.05,1.4-.07,3.06-.07,4.98s.01,3.94.03,6.05c0,.57-.19.99-.57,1.26-.38.26-.81.4-1.29.4-.62,0-.93-.38-.93-1.14.02-2.07.03-5.34.03-9.82v-9.79c0-.39.13-.77.4-1.14.26-.37.57-.55.93-.55s.68.1.98.29c.3.2.46.49.48.88.09,2.55.5,4.45,1.24,5.69.74,1.24,1.61,1.86,2.62,1.86s1.88-.17,2.6-.5,1.32-.72,1.79-1.15c.47-.44.92-1.06,1.36-1.86.62-1.15,1.22-2.56,1.79-4.24.34-1.01.91-1.52,1.69-1.52Z"/>
    <path class="st0" d="M603.24,158.28c-.09.57-.5.86-1.22.86s-1.08-.3-1.08-.9c0-1.36.67-4.11,2-8.27.6-1.91,1.26-3.49,2-4.76.74-1.26,1.45-1.9,2.14-1.9.37,0,.69.22.96.65.28.44.78,1.43,1.5,2.98.72,1.55,1.33,3.19,1.81,4.93.48,1.74,1.01,3.85,1.58,6.36,0,.3-.1.53-.31.71-.21.17-.46.26-.76.26-.74,0-1.2-.32-1.38-.96l-1.21-4.72c-2.02,0-3.64-.16-4.86-.48-.69,2.53-1.08,4.27-1.17,5.24ZM606.97,146.49c-.76,1.29-1.38,2.72-1.86,4.31,1.01.28,2.21.41,3.58.41-.44-1.59-1.01-3.16-1.72-4.72Z"/>
    <path class="st0" d="M616.82,156.31c0-1.24-.07-3.17-.21-5.77s-.25-4.23-.34-4.88c-.09-.64-.14-1.09-.14-1.34s.14-.49.41-.71c.28-.22.61-.33,1-.33s.69.21.9.62c.48,1.06.72,3.26.72,6.62,1.42-1.17,2.57-2.22,3.45-3.15s1.76-2.06,2.65-3.4c.3-.48.68-.72,1.14-.72.87,0,1.31.29,1.31.86,0,1.1-1.48,3.17-4.45,6.2,1.26,1.15,2.45,2.59,3.57,4.33,1.11,1.74,1.67,2.81,1.67,3.24s-.12.75-.36.97c-.24.22-.52.33-.84.33s-.7-.28-1.12-.84c-.42-.56-.93-1.32-1.52-2.27-.59-.95-1.1-1.71-1.55-2.27-.45-.56-1.06-1.18-1.84-1.84-.67.6-1.34,1.14-2.03,1.62.07,2.69.1,4.19.1,4.52,0,.76-.5,1.14-1.52,1.14-.69,0-1.02-.36-1-1.07v-1.83Z"/>
    <path class="st0" d="M634.3,151.45l.07,4.52c0,.6-.01.92-.03.96l5.96-.1c.67.07,1,.36,1,.86,0,.97-.45,1.45-1.34,1.45l-6.76.07c-.41,0-.72-.14-.91-.43-.2-.29-.3-.59-.33-.91-.02-.32-.04-.68-.04-1.07v-5.72c-.3-.16-.45-.4-.45-.72s.13-.61.38-.86c-.07-1.79-.1-3.42-.1-4.89,0-.85.52-1.29,1.55-1.31h.96l6.03.1h.03c.74.09,1.1.44,1.1,1.03,0,.46-.14.77-.41.93-.6.32-2.03.48-4.31.48-.85,0-1.7-.03-2.55-.1,0,2.07.01,3.23.04,3.48.9.02,2.65.03,5.27.03.71.09,1.07.41,1.07.96,0,.28-.12.54-.34.79-.23.25-.48.4-.74.43-.26.03-.83.05-1.69.05s-2.02-.01-3.46-.03Z"/>
    <path class="st0" d="M647.19,157.93c0,.34-.16.64-.48.9-.32.25-.68.38-1.07.38-.51,0-.76-.23-.76-.69-.09-1.08-.14-5.36-.14-12.86,0-.74.44-1.31,1.33-1.72.88-.41,2.07-.62,3.55-.62s2.78.37,3.89,1.1c1.11.74,1.67,1.62,1.67,2.65,0,.51-.22,1.07-.65,1.69-.44.62-.9,1.11-1.4,1.46-.49.36-1.2.79-2.12,1.29-.92.51-1.48.78-1.69.83,1.45.92,2.73,1.92,3.86,3,1.13,1.08,1.69,1.93,1.69,2.55s-.28,1.02-.83,1.21c-.16.05-.37.07-.62.07s-.57-.25-.96-.74-1.13-1.21-2.21-2.14-2.15-1.76-3.21-2.5c.05,1.84.09,3.21.14,4.1v.03ZM647.05,150.73c.76,0,1.9-.37,3.41-1.12,1.52-.75,2.31-1.44,2.38-2.09,0-.62-.34-1.09-1.03-1.4-.69-.31-1.41-.47-2.17-.47-.87,0-1.72.1-2.55.31-.02,1.1-.03,2.69-.03,4.76Z"/>
  </g>
</svg>